<svg xmlns="http://www.w3.org/2000/svg" viewBox="0 0 64 64" id="letter"><circle cx="32" cy="32" r="32" fill="#ee6a3b"></circle><path fill="#fff" d="M32.39 29.58a.682.682 0 0 1-.77 0L11 15.53v21.25h42V15.54L32.39 29.58z"></path><path fill="#fff" d="M51.48 14.93H12.52L32 28.21zM31.62 40.16c-.45 0-.81.36-.81.81v7.28c0 .45.36.81.81.81.45 0 .81-.36.81-.81v-7.28a.807.807 0 0 0-.81-.81zm-5.33 0c-.45 0-.81.36-.81.81v4.57c0 .45.36.81.81.81.45 0 .81-.36.81-.81v-4.57c0-.44-.36-.81-.81-.81zm11.43 0c-.45 0-.81.36-.81.81v4.57c0 .45.36.81.81.81s.81-.36.81-.81v-4.57c0-.44-.36-.81-.81-.81z"></path></svg>